<svg data-v-fde0c5aa="" xmlns="http://www.w3.org/2000/svg" viewBox="0 0 300 300" class="font"><!----><defs data-v-fde0c5aa=""><linearGradient data-v-fde0c5aa="" gradientTransform="rotate(25)" id="b840d9d8-214e-470f-95cb-243f29b842cd" x1="0%" y1="0%" x2="100%" y2="0%"><stop data-v-fde0c5aa="" offset="0%" stop-color="#90185D" stop-opacity="1"></stop><stop data-v-fde0c5aa="" offset="100%" stop-color="#AEAFA6" stop-opacity="1"></stop></linearGradient></defs><rect data-v-fde0c5aa="" fill="url(#b840d9d8-214e-470f-95cb-243f29b842cd)" x="0" y="0" width="300px" height="300px" class="logo-background-square"></rect><defs data-v-fde0c5aa=""><!----></defs><g data-v-fde0c5aa="" id="ca07d920-2037-4d92-a834-b9d5d4266eb8" fill="#ffffff" transform="matrix(2.218860278510216,0,0,2.218860278510216,37.73676255824097,131.51689299126048)"><path d="M1.02 8.36L1.02 8.36C1.02 11.09 3.30 13.30 6.12 13.30L6.12 13.30C7.32 13.30 8.43 12.89 9.28 12.24L9.28 12.24C9.44 12.12 9.46 11.87 9.32 11.75L9.32 11.75C9.23 11.58 9.00 11.55 8.83 11.66L8.83 11.66C8.11 12.28 7.15 12.61 6.12 12.61L6.12 12.61C3.67 12.61 1.71 10.70 1.71 8.36L1.71 8.36C1.71 5.96 3.67 4.05 6.12 4.05L6.12 4.05C7.15 4.05 8.11 4.41 8.86 5.00L8.86 5.00C9.00 5.11 9.23 5.10 9.34 4.93L9.34 4.93C9.46 4.80 9.44 4.56 9.28 4.44L9.28 4.44C8.43 3.78 7.32 3.36 6.12 3.36L6.12 3.36C3.30 3.37 1.02 5.57 1.02 8.36ZM11.54 8.36L11.54 8.36C11.54 11.09 13.82 13.30 16.63 13.30L16.63 13.30C17.84 13.30 18.94 12.89 19.80 12.24L19.80 12.24C19.95 12.12 19.98 11.87 19.84 11.75L19.84 11.75C19.74 11.58 19.52 11.55 19.35 11.66L19.35 11.66C18.62 12.28 17.67 12.61 16.63 12.61L16.63 12.61C14.18 12.61 12.22 10.70 12.22 8.36L12.22 8.36C12.22 5.96 14.18 4.05 16.63 4.05L16.63 4.05C17.67 4.05 18.62 4.41 19.38 5.00L19.38 5.00C19.52 5.11 19.74 5.10 19.85 4.93L19.85 4.93C19.98 4.80 19.95 4.56 19.80 4.44L19.80 4.44C18.94 3.78 17.84 3.36 16.63 3.36L16.63 3.36C13.82 3.37 11.54 5.57 11.54 8.36ZM25.30 12.96C25.30 13.15 25.45 13.30 25.63 13.30C25.82 13.30 25.97 13.15 25.97 12.96L25.97 4.19L28.92 4.19C29.11 4.19 29.26 4.03 29.26 3.84C29.26 3.65 29.11 3.50 28.92 3.50L22.34 3.50C22.16 3.50 22.01 3.65 22.01 3.84C22.01 4.03 22.16 4.19 22.34 4.19L25.30 4.19L25.30 12.96ZM38.57 12.96C38.57 13.15 38.72 13.30 38.91 13.30C39.09 13.30 39.24 13.15 39.24 12.96L39.24 4.19L42.20 4.19C42.38 4.19 42.53 4.03 42.53 3.84C42.53 3.65 42.38 3.50 42.20 3.50L35.62 3.50C35.43 3.50 35.28 3.65 35.28 3.84C35.28 4.03 35.43 4.19 35.62 4.19L38.57 4.19L38.57 12.96ZM45.91 13.30C47.07 13.30 48.09 12.68 48.68 11.75C48.78 11.58 48.72 11.38 48.57 11.27C48.43 11.19 48.22 11.21 48.12 11.38C47.66 12.15 46.82 12.63 45.91 12.63C44.49 12.63 43.32 11.49 43.25 10.00L48.87 10.00C49.06 10.00 49.21 9.87 49.21 9.69L49.21 9.65L49.21 9.63C49.07 7.84 47.67 6.44 45.91 6.44C44.06 6.44 42.57 7.98 42.57 9.88C42.57 11.76 44.06 13.30 45.91 13.30ZM45.91 7.11C47.17 7.11 48.26 8.05 48.48 9.34L43.29 9.34C43.54 8.04 44.62 7.11 45.91 7.11ZM56.49 12.96C56.49 13.16 56.64 13.30 56.83 13.30C57.01 13.30 57.16 13.16 57.16 12.96L57.16 9.24C57.16 7.71 55.92 6.45 54.38 6.45C53.52 6.45 52.75 6.85 52.25 7.45L52.25 6.79C52.25 6.61 52.11 6.45 51.93 6.45C51.73 6.45 51.59 6.61 51.59 6.79L51.59 9.13L51.59 9.24L51.59 12.96L51.59 13.05C51.59 13.05 51.60 13.06 51.60 13.08C51.60 13.09 51.60 13.10 51.62 13.12C51.66 13.20 51.74 13.27 51.84 13.30L51.93 13.30C52.02 13.30 52.12 13.26 52.18 13.17C52.22 13.13 52.23 13.08 52.25 13.02L52.25 12.96L52.25 9.24C52.28 8.08 53.21 7.13 54.38 7.13C55.55 7.13 56.49 8.08 56.49 9.24L56.49 12.96ZM65.38 12.96C65.38 13.15 65.53 13.30 65.73 13.30C65.91 13.30 66.07 13.15 66.07 12.96L66.07 9.88L66.07 9.74L66.07 3.84C66.07 3.65 65.91 3.50 65.73 3.50C65.53 3.50 65.38 3.65 65.38 3.84L65.38 7.78C64.78 6.97 63.83 6.44 62.75 6.44C60.90 6.44 59.43 7.98 59.43 9.88C59.43 11.76 60.90 13.30 62.75 13.30C63.83 13.30 64.78 12.78 65.38 11.97ZM62.75 12.61C61.31 12.61 60.12 11.40 60.12 9.88C60.12 8.36 61.31 7.13 62.75 7.13C64.16 7.13 65.32 8.30 65.38 9.77L65.38 10.00C65.32 11.45 64.16 12.61 62.75 12.61ZM74.55 6.44C74.37 6.44 74.21 6.58 74.21 6.78L74.21 7.78C73.63 6.97 72.69 6.44 71.64 6.44C69.83 6.44 68.39 7.99 68.39 9.87C68.39 11.75 69.83 13.30 71.64 13.30C72.69 13.30 73.63 12.75 74.21 11.94L74.21 12.96C74.21 13.15 74.37 13.30 74.55 13.30C74.73 13.30 74.89 13.15 74.89 12.96L74.89 6.78C74.89 6.58 74.73 6.44 74.55 6.44ZM71.64 12.63C70.24 12.63 69.06 11.41 69.06 9.87C69.06 8.33 70.24 7.10 71.64 7.10C73.05 7.10 74.21 8.33 74.21 9.87C74.21 11.41 73.05 12.63 71.64 12.63ZM82.56 12.96C82.56 13.16 82.71 13.30 82.89 13.30C83.08 13.30 83.23 13.16 83.23 12.96L83.23 9.24C83.23 7.71 81.98 6.45 80.44 6.45C79.59 6.45 78.82 6.85 78.32 7.45L78.32 6.79C78.32 6.61 78.18 6.45 77.99 6.45C77.80 6.45 77.66 6.61 77.66 6.79L77.66 9.13L77.66 9.24L77.66 12.96L77.66 13.05C77.66 13.05 77.67 13.06 77.67 13.08C77.67 13.09 77.67 13.10 77.69 13.12C77.73 13.20 77.81 13.27 77.91 13.30L77.99 13.30C78.09 13.30 78.19 13.26 78.25 13.17C78.29 13.13 78.30 13.08 78.32 13.02L78.32 12.96L78.32 9.24C78.34 8.08 79.28 7.13 80.44 7.13C81.62 7.13 82.56 8.08 82.56 9.24L82.56 12.96ZM89.28 13.30L89.28 13.30C89.28 13.30 89.28 13.30 89.28 13.30L89.28 13.30C90.09 13.30 90.86 13.02 91.43 12.57L91.43 12.57C91.60 12.45 91.63 12.24 91.50 12.08L91.50 12.08C91.39 11.96 91.20 11.91 91.04 12.03L91.04 12.03L91.04 12.03C90.55 12.40 89.94 12.63 89.28 12.63L89.28 12.63C87.68 12.63 86.42 11.40 86.42 9.86L86.42 9.86C86.42 8.34 87.68 7.10 89.28 7.10L89.28 7.10C89.94 7.10 90.55 7.32 91.04 7.71L91.04 7.71C91.20 7.83 91.39 7.78 91.50 7.66L91.50 7.66C91.63 7.50 91.60 7.29 91.46 7.20L91.46 7.20C90.86 6.72 90.09 6.44 89.28 6.44L89.28 6.44C87.32 6.44 85.75 7.95 85.75 9.86L85.75 9.86C85.75 11.79 87.32 13.30 89.28 13.30ZM96.87 13.30C98.03 13.30 99.05 12.68 99.64 11.75C99.74 11.58 99.68 11.38 99.53 11.27C99.39 11.19 99.18 11.21 99.08 11.38C98.62 12.15 97.78 12.63 96.87 12.63C95.45 12.63 94.28 11.49 94.21 10.00L99.83 10.00C100.02 10.00 100.17 9.87 100.17 9.69L100.17 9.65L100.17 9.63C100.03 7.84 98.63 6.44 96.87 6.44C95.02 6.44 93.53 7.98 93.53 9.88C93.53 11.76 95.02 13.30 96.87 13.30ZM96.87 7.11C98.13 7.11 99.22 8.05 99.44 9.34L94.25 9.34C94.50 8.04 95.58 7.11 96.87 7.11Z"></path></g><!----><!----></svg>